<svg xmlns="http://www.w3.org/2000/svg" width="200" height="200" fill="none" viewBox="0 0 200 200" id="books">
  <path fill="#CB4320" d="M13.0775 145.484C13.0775 141.275 16.4897 137.863 20.6989 137.863H173.245C177.454 137.863 180.867 141.275 180.867 145.484V176.845C180.867 181.054 177.454 184.466 173.245 184.466H20.6989C16.4897 184.466 13.0775 181.054 13.0775 176.845V145.484Z"></path>
  <path fill="#3A9A51" d="M26.9912 52.6768C26.9912 48.4676 30.4034 45.0554 34.6126 45.0554H168.612C172.821 45.0554 176.233 48.4676 176.233 52.6768V80.8251C176.233 85.0343 172.821 88.4465 168.612 88.4465H34.6126C30.4034 88.4465 26.9912 85.0343 26.9912 80.8251V52.6768Z"></path>
  <path fill="#F49E15" d="M45.9134 23.1551C45.9134 18.9459 49.3256 15.5337 53.5348 15.5337H149.69C153.899 15.5337 157.311 18.9459 157.311 23.1551V37.4341C157.311 41.6433 153.899 45.0555 149.69 45.0555H53.5348C49.3256 45.0555 45.9134 41.6433 45.9134 37.4341V23.1551Z"></path>
  <path fill="#E45B28" d="M28.7965 137.863H41.6134V184.466H28.7965V137.863ZM150.92 137.863H163.737V184.466H150.92V137.863Z"></path>
  <path fill="#F79E16" d="M7.83182 113.155C7.83182 99.5091 18.8941 88.4468 32.5401 88.4468H184.532V137.863H32.5401C18.8941 137.863 7.83182 126.801 7.83182 113.155Z"></path>
  <path fill="#F79E16" d="M176.233 88.4468H186.262C189.524 88.4468 192.168 91.0909 192.168 94.3527V94.3527C192.168 97.6144 189.524 100.259 186.262 100.259H176.233V88.4468ZM176.233 126.051H186.262C189.524 126.051 192.168 128.695 192.168 131.957V131.957C192.168 135.219 189.524 137.863 186.262 137.863H176.233V126.051Z"></path>
  <rect width="18.342" height="43.391" x="134.551" y="45.055" fill="#146E3A"></rect>
  <rect width="18.342" height="43.391" x="50.966" y="45.055" fill="#146E3A"></rect>
  <path fill="#FEE4A3" d="M19.7972 113.375C19.7972 106.131 25.6695 100.258 32.9134 100.258H184.532V126.491H32.9134C25.6695 126.491 19.7972 120.618 19.7972 113.375Z"></path>
</svg>
