<svg xmlns="http://www.w3.org/2000/svg" id="sketch-book" enable-background="new 0 0 64 64" viewBox="0 0 64 64">
  <path fill="#06afff" d="M47.5,54.5v-50c0-1.65-1.35-3-3.01-3H5.5v61h38.99c1.66,0,3.01-1.35,3.01-3v-1h-25l-4-2l4-2H47.5z"></path>
  <path fill="#0688ff" d="M47.5,58.5v1c0,1.65-1.35,3-3.01,3H5.5v-61h3.51C9,1.67,9,1.83,9,2c0,23.59,14.33,43.83,34.76,52.5H22.5l-4,2
		l4,2H47.5z"></path>
  <rect width="7" height="50" x="50.5" y="1.5" fill="#fcda35"></rect>
  <rect width="3.5" height="50" x="50.5" y="1.5" fill="#faca00"></rect>
  <rect width="35" height="4" x="22.5" y="54.5" fill="#ff56cb"></rect>
  <polygon fill="#fcda35" points="22.5 54.5 22.5 58.5 18.5 56.5"></polygon>
  <rect width="3" height="4" x="57.5" y="54.5" fill="#fcda35"></rect>
  <rect width="35" height="2" x="22.5" y="56.5" fill="#d949ac"></rect>
  <polygon fill="#faca00" points="22.5 56.5 22.5 58.5 18.5 56.5"></polygon>
  <rect width="3" height="2" x="57.5" y="56.5" fill="#faca00"></rect>
  <path fill="#fff" d="M44.5,42.5l0,6.902c0,0.872-0.507,1.716-1.335,1.989C41.788,51.845,40.5,50.816,40.5,49.5l0-6.907
		c0-0.944,0.608-1.833,1.529-2.04c0.73-0.164,1.42,0.064,1.881,0.537C44.27,41.45,44.5,41.95,44.5,42.5z"></path>
  <rect width="4" height="7" x="40.5" y="42.5" fill="#ff56cb"></rect>
  <path fill="#fff" d="M6.904 10.5H4.096C3.767 10.5 3.5 10.233 3.5 9.904V9.096C3.5 8.767 3.767 8.5 4.096 8.5h2.809C7.233 8.5 7.5 8.767 7.5 9.096v.809C7.5 10.233 7.233 10.5 6.904 10.5zM6.904 19.5H4.096c-.329 0-.596-.267-.596-.596v-.809c0-.329.267-.596.596-.596h2.809c.329 0 .596.267.596.596v.809C7.5 19.233 7.233 19.5 6.904 19.5zM6.904 46.5H4.096c-.329 0-.596-.267-.596-.596v-.809c0-.329.267-.596.596-.596h2.809c.329 0 .596.267.596.596v.809C7.5 46.233 7.233 46.5 6.904 46.5zM6.904 55.5H4.096c-.329 0-.596-.267-.596-.596v-.809c0-.329.267-.596.596-.596h2.809c.329 0 .596.267.596.596v.809C7.5 55.233 7.233 55.5 6.904 55.5z"></path>
  <path fill="#2828b8" d="M44.495 63H5.5C5.224 63 5 62.776 5 62.5v-7C5 55.224 5.224 55 5.5 55S6 55.224 6 55.5V62h38.495C45.876 62 47 60.876 47 59.495V58.5c0-.276.224-.5.5-.5s.5.224.5.5v.995C48 61.428 46.428 63 44.495 63zM5.5 54C5.224 54 5 53.776 5 53.5v-7C5 46.224 5.224 46 5.5 46S6 46.224 6 46.5v7C6 53.776 5.776 54 5.5 54zM5.5 45C5.224 45 5 44.776 5 44.5v-25C5 19.224 5.224 19 5.5 19S6 19.224 6 19.5v25C6 44.776 5.776 45 5.5 45zM5.5 18C5.224 18 5 17.776 5 17.5v-7C5 10.224 5.224 10 5.5 10S6 10.224 6 10.5v7C6 17.776 5.776 18 5.5 18zM47.5 55c-.276 0-.5-.224-.5-.5V4.505C47 3.124 45.876 2 44.495 2H6v6.5C6 8.776 5.776 9 5.5 9S5 8.776 5 8.5v-7C5 1.224 5.224 1 5.5 1h38.995C46.428 1 48 2.572 48 4.505V54.5C48 54.776 47.776 55 47.5 55zM57.5 52h-7c-.276 0-.5-.224-.5-.5v-50C50 1.224 50.224 1 50.5 1h7C57.776 1 58 1.224 58 1.5v50C58 51.776 57.776 52 57.5 52zM51 51h6V2h-6V51z"></path>
  <path fill="#2828b8" d="M60.5,59h-38c-0.078,0-0.154-0.018-0.224-0.053l-4-2C18.107,56.862,18,56.689,18,56.5
			s0.107-0.362,0.276-0.447l4-2C22.346,54.018,22.422,54,22.5,54h7c0.276,0,0.5,0.224,0.5,0.5S29.776,55,29.5,55h-6.882l-3,1.5
			l3,1.5H60v-3H42.5c-0.276,0-0.5-0.224-0.5-0.5s0.224-0.5,0.5-0.5h18c0.276,0,0.5,0.224,0.5,0.5v4C61,58.776,60.776,59,60.5,59z"></path>
  <path fill="#2828b8" d="M22.5 59c-.276 0-.5-.224-.5-.5v-4c0-.276.224-.5.5-.5s.5.224.5.5v4C23 58.776 22.776 59 22.5 59zM57.5 59c-.276 0-.5-.224-.5-.5v-4c0-.276.224-.5.5-.5s.5.224.5.5v4C58 58.776 57.776 59 57.5 59zM42.5 52c-1.378 0-2.5-1.122-2.5-2.5v-7c0-1.378 1.122-2.5 2.5-2.5s2.5 1.122 2.5 2.5v7C45 50.878 43.878 52 42.5 52zM42.5 41c-.827 0-1.5.673-1.5 1.5v7c0 .827.673 1.5 1.5 1.5s1.5-.673 1.5-1.5v-7C44 41.673 43.327 41 42.5 41z"></path>
  <path fill="#2828b8" d="M44.5 43h-4c-.276 0-.5-.224-.5-.5s.224-.5.5-.5h4c.276 0 .5.224.5.5S44.776 43 44.5 43zM44.5 50h-4c-.276 0-.5-.224-.5-.5s.224-.5.5-.5h4c.276 0 .5.224.5.5S44.776 50 44.5 50zM57.5 9h-3C54.224 9 54 8.776 54 8.5S54.224 8 54.5 8h3C57.776 8 58 8.224 58 8.5S57.776 9 57.5 9zM57.5 6h-1C56.224 6 56 5.776 56 5.5S56.224 5 56.5 5h1C57.776 5 58 5.224 58 5.5S57.776 6 57.5 6zM57.5 15h-3c-.276 0-.5-.224-.5-.5s.224-.5.5-.5h3c.276 0 .5.224.5.5S57.776 15 57.5 15zM57.5 12h-1c-.276 0-.5-.224-.5-.5s.224-.5.5-.5h1c.276 0 .5.224.5.5S57.776 12 57.5 12zM57.5 21h-3c-.276 0-.5-.224-.5-.5s.224-.5.5-.5h3c.276 0 .5.224.5.5S57.776 21 57.5 21zM57.5 18h-1c-.276 0-.5-.224-.5-.5s.224-.5.5-.5h1c.276 0 .5.224.5.5S57.776 18 57.5 18zM57.5 27h-3c-.276 0-.5-.224-.5-.5s.224-.5.5-.5h3c.276 0 .5.224.5.5S57.776 27 57.5 27zM57.5 24h-1c-.276 0-.5-.224-.5-.5s.224-.5.5-.5h1c.276 0 .5.224.5.5S57.776 24 57.5 24zM57.5 33h-3c-.276 0-.5-.224-.5-.5s.224-.5.5-.5h3c.276 0 .5.224.5.5S57.776 33 57.5 33zM57.5 30h-1c-.276 0-.5-.224-.5-.5s.224-.5.5-.5h1c.276 0 .5.224.5.5S57.776 30 57.5 30zM57.5 39h-3c-.276 0-.5-.224-.5-.5s.224-.5.5-.5h3c.276 0 .5.224.5.5S57.776 39 57.5 39zM57.5 36h-1c-.276 0-.5-.224-.5-.5s.224-.5.5-.5h1c.276 0 .5.224.5.5S57.776 36 57.5 36zM57.5 45h-3c-.276 0-.5-.224-.5-.5s.224-.5.5-.5h3c.276 0 .5.224.5.5S57.776 45 57.5 45zM57.5 42h-1c-.276 0-.5-.224-.5-.5s.224-.5.5-.5h1c.276 0 .5.224.5.5S57.776 42 57.5 42zM57.5 48h-1c-.276 0-.5-.224-.5-.5s.224-.5.5-.5h1c.276 0 .5.224.5.5S57.776 48 57.5 48zM37.5 55h-5c-.276 0-.5-.224-.5-.5s.224-.5.5-.5h5c.276 0 .5.224.5.5S37.776 55 37.5 55zM6.904 11H4.096C3.492 11 3 10.508 3 9.904V9.096C3 8.492 3.492 8 4.096 8h2.809C7.508 8 8 8.492 8 9.096v.809C8 10.508 7.508 11 6.904 11zM4.096 9C4.043 9 4 9.043 4 9.096v.809C4 9.957 4.043 10 4.096 10h2.809C6.957 10 7 9.957 7 9.904V9.096C7 9.043 6.957 9 6.904 9H4.096zM6.904 20H4.096C3.492 20 3 19.508 3 18.904v-.809C3 17.492 3.492 17 4.096 17h2.809C7.508 17 8 17.492 8 18.096v.809C8 19.508 7.508 20 6.904 20zM4.096 18C4.043 18 4 18.043 4 18.096v.809C4 18.957 4.043 19 4.096 19h2.809C6.957 19 7 18.957 7 18.904v-.809C7 18.043 6.957 18 6.904 18H4.096zM6.904 47H4.096C3.492 47 3 46.508 3 45.904v-.809C3 44.492 3.492 44 4.096 44h2.809C7.508 44 8 44.492 8 45.096v.809C8 46.508 7.508 47 6.904 47zM4.096 45C4.043 45 4 45.043 4 45.096v.809C4 45.957 4.043 46 4.096 46h2.809C6.957 46 7 45.957 7 45.904v-.809C7 45.043 6.957 45 6.904 45H4.096zM6.904 56H4.096C3.492 56 3 55.508 3 54.904v-.809C3 53.492 3.492 53 4.096 53h2.809C7.508 53 8 53.492 8 54.096v.809C8 55.508 7.508 56 6.904 56zM4.096 54C4.043 54 4 54.043 4 54.096v.809C4 54.957 4.043 55 4.096 55h2.809C6.957 55 7 54.957 7 54.904v-.809C7 54.043 6.957 54 6.904 54H4.096z"></path>
</svg>
