<svg xmlns="http://www.w3.org/2000/svg" xml:space="preserve" id="study-bag" x="0" y="0" enable-background="new 0 0 64 64" version="1.1" viewBox="0 0 64 64">
  <circle cx="32" cy="32" r="32" fill="#9960ea"></circle>
  <path d="M61.22,48.82l-0.7-4.99c-0.49-3.47-3.28-6.14-6.68-6.55V27.15c0-4.49-1.36-8.77-3.87-12.39V8.53c0-1.27-0.5-2.47-1.4-3.37
			s-2.1-1.4-3.37-1.4c-2.13,0-3.92,1.42-4.53,3.35c-0.29-0.13-0.59-0.24-0.89-0.35C39.24,2.92,35.94,0,32,0s-7.23,2.92-7.77,6.75
			c-0.3,0.12-0.6,0.23-0.89,0.36c-0.23-0.72-0.61-1.39-1.16-1.95c-0.91-0.9-2.1-1.4-3.38-1.4c-2.63,0-4.77,2.14-4.77,4.77v6.23
			c-2.52,3.66-3.87,7.93-3.87,12.39v10.13c-3.4,0.41-6.19,3.08-6.68,6.55l-0.7,4.99c-0.33,2.4,0.39,4.82,1.98,6.65
			c1.45,1.67,3.49,2.67,5.68,2.83c0.9,3.28,3.9,5.7,7.46,5.7h28.2c3.56,0,6.56-2.42,7.46-5.7c2.19-0.16,4.23-1.16,5.69-2.83
			C60.83,53.64,61.55,51.22,61.22,48.82z M6.22,54.2C5,52.79,4.45,50.93,4.7,49.08l0.7-4.98c0.35-2.52,2.33-4.46,4.76-4.86v17.03
			c0,0.02,0.01,0.04,0.01,0.06C8.65,56.12,7.24,55.37,6.22,54.2z M45.2,5.7c0.75,0,1.46,0.3,2,0.83c0.53,0.54,0.83,1.25,0.83,2v3.82
			c-0.2-0.21-0.38-0.44-0.59-0.64c-1.5-1.51-3.19-2.76-5.01-3.75C42.7,6.67,43.84,5.7,45.2,5.7z M32,1.94
			c2.63,0,4.87,1.73,5.64,4.13C35.82,5.59,33.93,5.31,32,5.31c-1.9,0-3.8,0.26-5.63,0.75C27.13,3.66,29.38,1.94,32,1.94z
			 M15.97,8.53c0-1.56,1.27-2.83,2.83-2.83c0.76,0,1.47,0.3,2,0.83c0.4,0.4,0.67,0.9,0.78,1.43c-2.09,1.13-3.99,2.61-5.61,4.37V8.53
			z M51.9,56.27c0,3.19-2.6,5.79-5.8,5.79H17.9c-3.2,0-5.8-2.6-5.8-5.79V27.15c0-4.16,1.28-8.15,3.69-11.54
			c1.89-2.64,4.39-4.79,7.25-6.22c2.75-1.4,5.85-2.14,8.96-2.14c5.31,0,10.31,2.07,14.07,5.83c3.76,3.76,5.83,8.76,5.83,14.07V56.27
			z M57.78,54.2c-1.02,1.17-2.42,1.92-3.94,2.13V39.24c2.43,0.4,4.41,2.34,4.76,4.86l0.7,4.98C59.55,50.93,59,52.79,57.78,54.2z"></path>
  <path fill="#e5e5e5" d="M37.64,6.07C35.82,5.59,33.93,5.31,32,5.31c-1.9,0-3.8,0.26-5.63,0.75c0.76-2.4,3.01-4.12,5.63-4.12
			C34.63,1.94,36.87,3.67,37.64,6.07z"></path>
  <path fill="#ea9847" d="M21.58 7.96c-2.09 1.13-3.99 2.61-5.61 4.37v-3.8c0-1.56 1.27-2.83 2.83-2.83.76 0 1.47.3 2 .83C21.2 6.93 21.47 7.43 21.58 7.96zM48.03 8.53v3.82c-.2-.21-.38-.44-.59-.64-1.5-1.51-3.19-2.76-5.01-3.75C42.7 6.67 43.84 5.7 45.2 5.7c.75 0 1.46.3 2 .83C47.73 7.07 48.03 7.78 48.03 8.53zM10.17 56.33c-1.52-.21-2.93-.96-3.95-2.13C5 52.79 4.45 50.93 4.7 49.08l.7-4.98c.35-2.52 2.33-4.46 4.76-4.86v17.03C10.16 56.29 10.17 56.31 10.17 56.33zM57.78 54.2c-1.02 1.17-2.42 1.92-3.94 2.13V39.24c2.43.4 4.41 2.34 4.76 4.86l.7 4.98C59.55 50.93 59 52.79 57.78 54.2z"></path>
  <path fill="#faa951" d="M46.07,13.08C42.31,9.32,37.31,7.25,32,7.25c-3.11,0-6.21,0.74-8.96,2.14c-2.86,1.43-5.36,3.58-7.25,6.22
			C13.38,19,12.1,22.99,12.1,27.15v29.12c0,3.19,2.6,5.79,5.8,5.79h28.2c3.2,0,5.8-2.6,5.8-5.79V27.15
			C51.9,21.84,49.83,16.84,46.07,13.08z M47.01,53.41c0,2.72-2.22,4.93-4.93,4.93H21.92c-2.71,0-4.92-2.21-4.92-4.93v-8.29
			c0-2.71,2.21-4.92,4.92-4.92h20.16c2.71,0,4.93,2.21,4.93,4.92V53.41z M47.78,35.22c0,0.53-0.44,0.97-0.97,0.97H17.19
			c-0.53,0-0.97-0.44-0.97-0.97v-6.71c0-8.7,7.08-15.78,15.78-15.78s15.78,7.08,15.78,15.78V35.22z"></path>
  <path d="M32,12.73c-8.7,0-15.78,7.08-15.78,15.78v6.71c0,0.53,0.44,0.97,0.97,0.97h29.62c0.53,0,0.97-0.44,0.97-0.97v-6.71
			C47.78,19.81,40.7,12.73,32,12.73z M45.84,34.25H18.16v-5.74c0-7.63,6.21-13.84,13.84-13.84s13.84,6.21,13.84,13.84V34.25z"></path>
  <path fill="#ea9847" d="M32,14.67c-7.63,0-13.84,6.21-13.84,13.84v5.74h27.68v-5.74C45.84,20.88,39.63,14.67,32,14.67z M42.51,26.37
			h-17.6v1.4c0,0.53-0.43,0.97-0.97,0.97c-0.53,0-0.97-0.44-0.97-0.97v-1.4h-1.48c-0.54,0-0.97-0.44-0.97-0.97
			c0-0.54,0.43-0.97,0.97-0.97h21.02c0.54,0,0.97,0.43,0.97,0.97C43.48,25.93,43.05,26.37,42.51,26.37z"></path>
  <path d="M42.08,40.2H21.92c-2.71,0-4.92,2.21-4.92,4.92v8.29c0,2.72,2.21,4.93,4.92,4.93h20.16c2.71,0,4.93-2.21,4.93-4.93v-8.29
			C47.01,42.41,44.79,40.2,42.08,40.2z M45.07,53.41c0,1.65-1.34,2.99-2.99,2.99H21.92c-1.64,0-2.98-1.34-2.98-2.99v-8.29
			c0-1.64,1.34-2.98,2.98-2.98h20.16c1.65,0,2.99,1.34,2.99,2.98V53.41z"></path>
  <path fill="#ea9847" d="M42.08,42.14H21.92c-1.64,0-2.98,1.34-2.98,2.98v8.29c0,1.65,1.34,2.99,2.98,2.99h20.16
			c1.65,0,2.99-1.34,2.99-2.99v-8.29C45.07,43.48,43.73,42.14,42.08,42.14z M42.51,47.56h-17.6v1.4c0,0.53-0.43,0.97-0.97,0.97
			c-0.53,0-0.97-0.44-0.97-0.97v-1.4h-1.48c-0.54,0-0.97-0.44-0.97-0.97c0-0.54,0.43-0.97,0.97-0.97h21.02
			c0.54,0,0.97,0.43,0.97,0.97C43.48,47.12,43.05,47.56,42.51,47.56z"></path>
  <path d="M43.48 46.59c0 .53-.43.97-.97.97h-17.6v1.4c0 .53-.43.97-.97.97-.53 0-.97-.44-.97-.97v-1.4h-1.48c-.54 0-.97-.44-.97-.97 0-.54.43-.97.97-.97h21.02C43.05 45.62 43.48 46.05 43.48 46.59zM43.48 25.4c0 .53-.43.97-.97.97h-17.6v1.4c0 .53-.43.97-.97.97-.53 0-.97-.44-.97-.97v-1.4h-1.48c-.54 0-.97-.44-.97-.97 0-.54.43-.97.97-.97h21.02C43.05 24.43 43.48 24.86 43.48 25.4z"></path>
</svg>
